<svg width="1920" height="300" viewBox="0 0 1920 300" fill="none" xmlns="http://www.w3.org/2000/svg">
<rect width="1920" height="300" fill="white"/>
<circle cx="500" cy="150" r="14" fill="#F37E20"/>
<path d="M501.453 143.586V155H499.57V145.82L496.781 146.766V145.211L501.227 143.586H501.453Z" fill="white"/>
<path d="M531.136 144.364V156H529.38V144.364H531.136ZM535.279 150.818V156H533.58V147.273H535.211V148.693H535.319C535.52 148.231 535.834 147.86 536.262 147.58C536.694 147.299 537.238 147.159 537.893 147.159C538.488 147.159 539.008 147.284 539.455 147.534C539.902 147.78 540.249 148.148 540.495 148.636C540.741 149.125 540.864 149.729 540.864 150.449V156H539.166V150.653C539.166 150.021 539.001 149.527 538.671 149.17C538.342 148.811 537.889 148.631 537.313 148.631C536.919 148.631 536.569 148.716 536.262 148.886C535.959 149.057 535.719 149.307 535.541 149.636C535.366 149.962 535.279 150.356 535.279 150.818ZM549.707 149.403L548.167 149.676C548.102 149.479 548 149.292 547.86 149.114C547.724 148.936 547.538 148.79 547.303 148.676C547.068 148.562 546.775 148.506 546.423 148.506C545.941 148.506 545.54 148.614 545.218 148.83C544.896 149.042 544.735 149.316 544.735 149.653C544.735 149.945 544.843 150.18 545.059 150.358C545.275 150.536 545.623 150.682 546.104 150.795L547.491 151.114C548.294 151.299 548.892 151.585 549.286 151.972C549.68 152.358 549.877 152.86 549.877 153.477C549.877 154 549.726 154.466 549.423 154.875C549.123 155.28 548.705 155.598 548.167 155.83C547.633 156.061 547.013 156.176 546.309 156.176C545.332 156.176 544.534 155.968 543.917 155.551C543.299 155.131 542.921 154.534 542.78 153.761L544.423 153.511C544.525 153.939 544.735 154.263 545.053 154.483C545.371 154.699 545.786 154.807 546.298 154.807C546.854 154.807 547.299 154.691 547.633 154.46C547.966 154.225 548.133 153.939 548.133 153.602C548.133 153.33 548.03 153.1 547.826 152.915C547.625 152.729 547.316 152.589 546.9 152.494L545.423 152.17C544.608 151.985 544.006 151.689 543.616 151.284C543.229 150.879 543.036 150.366 543.036 149.744C543.036 149.229 543.18 148.778 543.468 148.392C543.756 148.006 544.154 147.705 544.661 147.489C545.169 147.269 545.75 147.159 546.405 147.159C547.349 147.159 548.091 147.364 548.633 147.773C549.174 148.178 549.532 148.722 549.707 149.403ZM557.297 152.381V147.273H559.002V156H557.331V154.489H557.241C557.04 154.955 556.718 155.343 556.275 155.653C555.835 155.96 555.288 156.114 554.633 156.114C554.072 156.114 553.576 155.991 553.144 155.744C552.716 155.494 552.379 155.125 552.133 154.636C551.89 154.148 551.769 153.544 551.769 152.824V147.273H553.468V152.619C553.468 153.214 553.633 153.687 553.962 154.04C554.292 154.392 554.72 154.568 555.246 154.568C555.564 154.568 555.881 154.489 556.195 154.33C556.513 154.17 556.777 153.93 556.985 153.608C557.197 153.286 557.301 152.877 557.297 152.381ZM561.309 156V147.273H562.951V148.659H563.042C563.201 148.189 563.481 147.82 563.882 147.551C564.288 147.278 564.746 147.142 565.257 147.142C565.364 147.142 565.489 147.146 565.632 147.153C565.78 147.161 565.896 147.17 565.979 147.182V148.807C565.911 148.788 565.79 148.767 565.615 148.744C565.441 148.718 565.267 148.705 565.093 148.705C564.691 148.705 564.333 148.79 564.019 148.96C563.708 149.127 563.462 149.36 563.28 149.659C563.098 149.955 563.007 150.292 563.007 150.67V156H561.309ZM569.935 156.193C569.382 156.193 568.882 156.091 568.435 155.886C567.988 155.678 567.634 155.377 567.372 154.983C567.115 154.589 566.986 154.106 566.986 153.534C566.986 153.042 567.081 152.636 567.27 152.318C567.46 152 567.715 151.748 568.037 151.562C568.359 151.377 568.719 151.237 569.117 151.142C569.514 151.047 569.92 150.975 570.333 150.926C570.855 150.866 571.28 150.816 571.605 150.778C571.931 150.737 572.168 150.67 572.316 150.58C572.463 150.489 572.537 150.341 572.537 150.136V150.097C572.537 149.6 572.397 149.216 572.117 148.943C571.84 148.67 571.427 148.534 570.878 148.534C570.306 148.534 569.855 148.661 569.526 148.915C569.2 149.165 568.975 149.443 568.85 149.75L567.253 149.386C567.442 148.856 567.719 148.428 568.083 148.102C568.45 147.773 568.872 147.534 569.35 147.386C569.827 147.235 570.329 147.159 570.855 147.159C571.204 147.159 571.573 147.201 571.963 147.284C572.357 147.364 572.725 147.511 573.066 147.727C573.41 147.943 573.692 148.252 573.912 148.653C574.132 149.051 574.242 149.568 574.242 150.205V156H572.583V154.807H572.514C572.405 155.027 572.24 155.242 572.02 155.455C571.8 155.667 571.518 155.843 571.174 155.983C570.829 156.123 570.416 156.193 569.935 156.193ZM570.304 154.83C570.774 154.83 571.175 154.737 571.509 154.551C571.846 154.366 572.102 154.123 572.276 153.824C572.454 153.521 572.543 153.197 572.543 152.852V151.727C572.482 151.788 572.365 151.845 572.191 151.898C572.02 151.947 571.825 151.991 571.605 152.028C571.386 152.062 571.172 152.095 570.963 152.125C570.755 152.152 570.581 152.174 570.441 152.193C570.111 152.235 569.81 152.305 569.537 152.403C569.268 152.502 569.052 152.644 568.889 152.83C568.73 153.011 568.651 153.254 568.651 153.557C568.651 153.977 568.806 154.295 569.117 154.511C569.427 154.723 569.823 154.83 570.304 154.83ZM578.227 150.818V156H576.528V147.273H578.159V148.693H578.267C578.468 148.231 578.782 147.86 579.21 147.58C579.642 147.299 580.186 147.159 580.841 147.159C581.436 147.159 581.957 147.284 582.403 147.534C582.85 147.78 583.197 148.148 583.443 148.636C583.689 149.125 583.813 149.729 583.813 150.449V156H582.114V150.653C582.114 150.021 581.949 149.527 581.619 149.17C581.29 148.811 580.837 148.631 580.261 148.631C579.868 148.631 579.517 148.716 579.21 148.886C578.907 149.057 578.667 149.307 578.489 149.636C578.314 149.962 578.227 150.356 578.227 150.818ZM589.791 156.176C588.946 156.176 588.219 155.985 587.609 155.602C587.003 155.216 586.537 154.684 586.212 154.006C585.886 153.328 585.723 152.551 585.723 151.676C585.723 150.79 585.89 150.008 586.223 149.33C586.556 148.648 587.026 148.116 587.632 147.733C588.238 147.35 588.952 147.159 589.774 147.159C590.437 147.159 591.028 147.282 591.547 147.528C592.066 147.771 592.484 148.112 592.802 148.551C593.124 148.991 593.316 149.504 593.376 150.091H591.723C591.632 149.682 591.424 149.33 591.098 149.034C590.776 148.739 590.344 148.591 589.802 148.591C589.329 148.591 588.914 148.716 588.558 148.966C588.206 149.212 587.931 149.564 587.734 150.023C587.537 150.477 587.439 151.015 587.439 151.636C587.439 152.273 587.535 152.822 587.729 153.284C587.922 153.746 588.195 154.104 588.547 154.358C588.903 154.612 589.321 154.739 589.802 154.739C590.124 154.739 590.416 154.68 590.677 154.562C590.943 154.441 591.164 154.269 591.342 154.045C591.524 153.822 591.651 153.553 591.723 153.239H593.376C593.316 153.803 593.132 154.307 592.825 154.75C592.518 155.193 592.107 155.542 591.592 155.795C591.081 156.049 590.481 156.176 589.791 156.176ZM598.978 156.176C598.119 156.176 597.378 155.992 596.757 155.625C596.139 155.254 595.662 154.733 595.325 154.062C594.992 153.388 594.825 152.598 594.825 151.693C594.825 150.799 594.992 150.011 595.325 149.33C595.662 148.648 596.132 148.116 596.734 147.733C597.34 147.35 598.049 147.159 598.859 147.159C599.352 147.159 599.829 147.241 600.291 147.403C600.753 147.566 601.168 147.822 601.535 148.17C601.903 148.519 602.192 148.972 602.405 149.528C602.617 150.081 602.723 150.754 602.723 151.545V152.148H595.785V150.875H601.058C601.058 150.428 600.967 150.032 600.785 149.688C600.603 149.339 600.348 149.064 600.018 148.864C599.692 148.663 599.31 148.562 598.871 148.562C598.393 148.562 597.977 148.68 597.621 148.915C597.268 149.146 596.996 149.449 596.802 149.824C596.613 150.195 596.518 150.598 596.518 151.034V152.028C596.518 152.612 596.621 153.108 596.825 153.517C597.033 153.926 597.323 154.239 597.694 154.455C598.066 154.667 598.499 154.773 598.996 154.773C599.317 154.773 599.611 154.727 599.876 154.636C600.141 154.542 600.371 154.402 600.564 154.216C600.757 154.03 600.905 153.801 601.007 153.528L602.615 153.818C602.486 154.292 602.255 154.706 601.922 155.062C601.592 155.415 601.177 155.689 600.677 155.886C600.181 156.08 599.615 156.176 598.978 156.176ZM610.782 144.364V156H609.026V144.364H610.782ZM614.925 150.818V156H613.227V147.273H614.857V148.693H614.965C615.166 148.231 615.48 147.86 615.908 147.58C616.34 147.299 616.884 147.159 617.539 147.159C618.134 147.159 618.655 147.284 619.102 147.534C619.549 147.78 619.895 148.148 620.141 148.636C620.388 149.125 620.511 149.729 620.511 150.449V156H618.812V150.653C618.812 150.021 618.647 149.527 618.318 149.17C617.988 148.811 617.535 148.631 616.96 148.631C616.566 148.631 616.215 148.716 615.908 148.886C615.605 149.057 615.365 149.307 615.187 149.636C615.013 149.962 614.925 150.356 614.925 150.818ZM626.967 147.273V148.636H622.035V147.273H626.967ZM623.387 156V146.261C623.387 145.716 623.506 145.263 623.745 144.903C623.984 144.54 624.3 144.269 624.694 144.091C625.088 143.909 625.516 143.818 625.978 143.818C626.319 143.818 626.61 143.847 626.853 143.903C627.095 143.956 627.275 144.006 627.393 144.051L626.995 145.426C626.915 145.403 626.813 145.377 626.688 145.347C626.563 145.312 626.412 145.295 626.234 145.295C625.821 145.295 625.525 145.398 625.347 145.602C625.173 145.807 625.086 146.102 625.086 146.489V156H623.387ZM632.076 156.176C631.258 156.176 630.544 155.989 629.934 155.614C629.324 155.239 628.85 154.714 628.513 154.04C628.176 153.366 628.008 152.578 628.008 151.676C628.008 150.771 628.176 149.979 628.513 149.301C628.85 148.623 629.324 148.097 629.934 147.722C630.544 147.347 631.258 147.159 632.076 147.159C632.894 147.159 633.608 147.347 634.218 147.722C634.828 148.097 635.301 148.623 635.638 149.301C635.975 149.979 636.144 150.771 636.144 151.676C636.144 152.578 635.975 153.366 635.638 154.04C635.301 154.714 634.828 155.239 634.218 155.614C633.608 155.989 632.894 156.176 632.076 156.176ZM632.081 154.75C632.612 154.75 633.051 154.61 633.4 154.33C633.748 154.049 634.006 153.676 634.172 153.21C634.343 152.744 634.428 152.231 634.428 151.67C634.428 151.114 634.343 150.602 634.172 150.136C634.006 149.667 633.748 149.29 633.4 149.006C633.051 148.722 632.612 148.58 632.081 148.58C631.547 148.58 631.104 148.722 630.752 149.006C630.403 149.29 630.144 149.667 629.973 150.136C629.807 150.602 629.723 151.114 629.723 151.67C629.723 152.231 629.807 152.744 629.973 153.21C630.144 153.676 630.403 154.049 630.752 154.33C631.104 154.61 631.547 154.75 632.081 154.75Z" fill="#333333"/>
<path d="M851 149.5L643 149.5" stroke="#9E9E9E" stroke-width="2" stroke-dasharray="4 4"/>
<circle cx="879" cy="150" r="14" fill="#9E9E9E"/>
<path d="M882.938 153.5V155H875.312V153.711L879.016 149.672C879.422 149.214 879.742 148.818 879.977 148.484C880.211 148.151 880.375 147.852 880.469 147.586C880.568 147.315 880.617 147.052 880.617 146.797C880.617 146.438 880.549 146.122 880.414 145.852C880.284 145.576 880.091 145.359 879.836 145.203C879.581 145.042 879.271 144.961 878.906 144.961C878.484 144.961 878.13 145.052 877.844 145.234C877.557 145.417 877.341 145.669 877.195 145.992C877.049 146.31 876.977 146.674 876.977 147.086H875.094C875.094 146.424 875.245 145.82 875.547 145.273C875.849 144.721 876.286 144.284 876.859 143.961C877.432 143.633 878.122 143.469 878.93 143.469C879.69 143.469 880.336 143.596 880.867 143.852C881.398 144.107 881.802 144.469 882.078 144.938C882.359 145.406 882.5 145.961 882.5 146.602C882.5 146.956 882.443 147.307 882.328 147.656C882.214 148.005 882.049 148.354 881.836 148.703C881.628 149.047 881.38 149.393 881.094 149.742C880.807 150.086 880.492 150.435 880.148 150.789L877.688 153.5H882.938Z" fill="white"/>
<path d="M908.732 156V144.364H912.88C913.785 144.364 914.535 144.528 915.13 144.858C915.724 145.187 916.169 145.638 916.465 146.21C916.76 146.778 916.908 147.419 916.908 148.131C916.908 148.847 916.758 149.491 916.459 150.062C916.164 150.631 915.717 151.081 915.118 151.415C914.523 151.744 913.775 151.909 912.874 151.909H910.022V150.42H912.715C913.287 150.42 913.751 150.322 914.107 150.125C914.463 149.924 914.724 149.652 914.891 149.307C915.058 148.962 915.141 148.57 915.141 148.131C915.141 147.691 915.058 147.301 914.891 146.96C914.724 146.619 914.461 146.352 914.101 146.159C913.745 145.966 913.275 145.869 912.692 145.869H910.487V156H908.732ZM922.421 156.176C921.602 156.176 920.888 155.989 920.279 155.614C919.669 155.239 919.195 154.714 918.858 154.04C918.521 153.366 918.352 152.578 918.352 151.676C918.352 150.771 918.521 149.979 918.858 149.301C919.195 148.623 919.669 148.097 920.279 147.722C920.888 147.347 921.602 147.159 922.421 147.159C923.239 147.159 923.953 147.347 924.563 147.722C925.172 148.097 925.646 148.623 925.983 149.301C926.32 149.979 926.489 150.771 926.489 151.676C926.489 152.578 926.32 153.366 925.983 154.04C925.646 154.714 925.172 155.239 924.563 155.614C923.953 155.989 923.239 156.176 922.421 156.176ZM922.426 154.75C922.957 154.75 923.396 154.61 923.744 154.33C924.093 154.049 924.35 153.676 924.517 153.21C924.688 152.744 924.773 152.231 924.773 151.67C924.773 151.114 924.688 150.602 924.517 150.136C924.35 149.667 924.093 149.29 923.744 149.006C923.396 148.722 922.957 148.58 922.426 148.58C921.892 148.58 921.449 148.722 921.097 149.006C920.748 149.29 920.489 149.667 920.318 150.136C920.152 150.602 920.068 151.114 920.068 151.67C920.068 152.231 920.152 152.744 920.318 153.21C920.489 153.676 920.748 154.049 921.097 154.33C921.449 154.61 921.892 154.75 922.426 154.75ZM930.108 144.364V156H928.409V144.364H930.108ZM932.417 156V147.273H934.116V156H932.417ZM933.275 145.926C932.98 145.926 932.726 145.828 932.514 145.631C932.306 145.43 932.202 145.191 932.202 144.915C932.202 144.634 932.306 144.396 932.514 144.199C932.726 143.998 932.98 143.898 933.275 143.898C933.571 143.898 933.823 143.998 934.031 144.199C934.243 144.396 934.349 144.634 934.349 144.915C934.349 145.191 934.243 145.43 934.031 145.631C933.823 145.828 933.571 145.926 933.275 145.926ZM940.102 156.176C939.257 156.176 938.53 155.985 937.92 155.602C937.314 155.216 936.848 154.684 936.522 154.006C936.197 153.328 936.034 152.551 936.034 151.676C936.034 150.79 936.2 150.008 936.534 149.33C936.867 148.648 937.337 148.116 937.943 147.733C938.549 147.35 939.263 147.159 940.085 147.159C940.748 147.159 941.339 147.282 941.858 147.528C942.377 147.771 942.795 148.112 943.113 148.551C943.435 148.991 943.627 149.504 943.687 150.091H942.034C941.943 149.682 941.735 149.33 941.409 149.034C941.087 148.739 940.655 148.591 940.113 148.591C939.64 148.591 939.225 148.716 938.869 148.966C938.517 149.212 938.242 149.564 938.045 150.023C937.848 150.477 937.75 151.015 937.75 151.636C937.75 152.273 937.846 152.822 938.039 153.284C938.233 153.746 938.505 154.104 938.858 154.358C939.214 154.612 939.632 154.739 940.113 154.739C940.435 154.739 940.727 154.68 940.988 154.562C941.253 154.441 941.475 154.269 941.653 154.045C941.835 153.822 941.962 153.553 942.034 153.239H943.687C943.627 153.803 943.443 154.307 943.136 154.75C942.829 155.193 942.418 155.542 941.903 155.795C941.392 156.049 940.791 156.176 940.102 156.176ZM946.602 159.273C946.348 159.273 946.117 159.252 945.909 159.21C945.7 159.172 945.545 159.131 945.443 159.085L945.852 157.693C946.162 157.777 946.439 157.813 946.681 157.801C946.924 157.79 947.138 157.699 947.323 157.528C947.513 157.358 947.679 157.08 947.823 156.693L948.034 156.114L944.84 147.273H946.659L948.869 154.045H948.96L951.17 147.273H952.994L949.397 157.165C949.231 157.619 949.018 158.004 948.761 158.318C948.503 158.636 948.196 158.875 947.84 159.034C947.484 159.193 947.071 159.273 946.602 159.273ZM965.356 147.42C965.295 146.883 965.045 146.466 964.606 146.17C964.166 145.871 963.613 145.722 962.947 145.722C962.469 145.722 962.057 145.797 961.708 145.949C961.36 146.097 961.089 146.301 960.896 146.562C960.706 146.82 960.611 147.114 960.611 147.443C960.611 147.72 960.676 147.958 960.805 148.159C960.937 148.36 961.11 148.528 961.322 148.665C961.538 148.797 961.769 148.909 962.015 149C962.261 149.087 962.498 149.159 962.725 149.216L963.861 149.511C964.233 149.602 964.613 149.725 965.003 149.881C965.394 150.036 965.755 150.241 966.089 150.494C966.422 150.748 966.691 151.062 966.896 151.438C967.104 151.812 967.208 152.261 967.208 152.784C967.208 153.443 967.038 154.028 966.697 154.54C966.36 155.051 965.869 155.455 965.225 155.75C964.585 156.045 963.81 156.193 962.901 156.193C962.03 156.193 961.276 156.055 960.64 155.778C960.003 155.502 959.505 155.11 959.146 154.602C958.786 154.091 958.587 153.485 958.549 152.784H960.31C960.344 153.205 960.481 153.555 960.719 153.835C960.962 154.112 961.271 154.318 961.646 154.455C962.024 154.587 962.439 154.653 962.89 154.653C963.386 154.653 963.827 154.576 964.214 154.42C964.604 154.261 964.911 154.042 965.134 153.761C965.358 153.477 965.469 153.146 965.469 152.767C965.469 152.422 965.371 152.14 965.174 151.92C964.981 151.701 964.717 151.519 964.384 151.375C964.055 151.231 963.682 151.104 963.265 150.994L961.89 150.619C960.958 150.366 960.219 149.992 959.674 149.5C959.132 149.008 958.861 148.356 958.861 147.545C958.861 146.875 959.043 146.29 959.407 145.79C959.771 145.29 960.263 144.902 960.884 144.625C961.505 144.345 962.206 144.205 962.986 144.205C963.774 144.205 964.469 144.343 965.072 144.619C965.678 144.896 966.155 145.277 966.503 145.761C966.852 146.242 967.034 146.795 967.049 147.42H965.356ZM974.722 152.381V147.273H976.427V156H974.756V154.489H974.665C974.465 154.955 974.143 155.343 973.699 155.653C973.26 155.96 972.713 156.114 972.057 156.114C971.497 156.114 971 155.991 970.569 155.744C970.141 155.494 969.804 155.125 969.557 154.636C969.315 154.148 969.194 153.544 969.194 152.824V147.273H970.893V152.619C970.893 153.214 971.057 153.687 971.387 154.04C971.716 154.392 972.144 154.568 972.671 154.568C972.989 154.568 973.305 154.489 973.62 154.33C973.938 154.17 974.201 153.93 974.41 153.608C974.622 153.286 974.726 152.877 974.722 152.381ZM978.733 156V147.273H980.364V148.693H980.472C980.654 148.212 980.951 147.837 981.364 147.568C981.777 147.295 982.271 147.159 982.847 147.159C983.43 147.159 983.919 147.295 984.313 147.568C984.711 147.841 985.004 148.216 985.194 148.693H985.284C985.493 148.227 985.824 147.856 986.279 147.58C986.733 147.299 987.275 147.159 987.904 147.159C988.695 147.159 989.341 147.407 989.841 147.903C990.345 148.4 990.597 149.148 990.597 150.148V156H988.898V150.307C988.898 149.716 988.737 149.288 988.415 149.023C988.093 148.758 987.709 148.625 987.262 148.625C986.709 148.625 986.279 148.795 985.972 149.136C985.665 149.473 985.512 149.907 985.512 150.438V156H983.819V150.199C983.819 149.725 983.671 149.345 983.375 149.057C983.08 148.769 982.695 148.625 982.222 148.625C981.9 148.625 981.603 148.71 981.33 148.881C981.061 149.047 980.843 149.28 980.676 149.58C980.514 149.879 980.432 150.225 980.432 150.619V156H978.733ZM992.898 156V147.273H994.529V148.693H994.637C994.818 148.212 995.116 147.837 995.529 147.568C995.941 147.295 996.436 147.159 997.012 147.159C997.595 147.159 998.084 147.295 998.477 147.568C998.875 147.841 999.169 148.216 999.358 148.693H999.449C999.657 148.227 999.989 147.856 1000.44 147.58C1000.9 147.299 1001.44 147.159 1002.07 147.159C1002.86 147.159 1003.51 147.407 1004.01 147.903C1004.51 148.4 1004.76 149.148 1004.76 150.148V156H1003.06V150.307C1003.06 149.716 1002.9 149.288 1002.58 149.023C1002.26 148.758 1001.87 148.625 1001.43 148.625C1000.87 148.625 1000.44 148.795 1000.14 149.136C999.83 149.473 999.676 149.907 999.676 150.438V156H997.983V150.199C997.983 149.725 997.835 149.345 997.54 149.057C997.245 148.769 996.86 148.625 996.387 148.625C996.065 148.625 995.767 148.71 995.495 148.881C995.226 149.047 995.008 149.28 994.841 149.58C994.678 149.879 994.597 150.225 994.597 150.619V156H992.898ZM1009.6 156.193C1009.05 156.193 1008.55 156.091 1008.1 155.886C1007.66 155.678 1007.3 155.377 1007.04 154.983C1006.78 154.589 1006.65 154.106 1006.65 153.534C1006.65 153.042 1006.75 152.636 1006.94 152.318C1007.13 152 1007.38 151.748 1007.7 151.562C1008.03 151.377 1008.39 151.237 1008.78 151.142C1009.18 151.047 1009.59 150.975 1010 150.926C1010.52 150.866 1010.95 150.816 1011.27 150.778C1011.6 150.737 1011.84 150.67 1011.98 150.58C1012.13 150.489 1012.2 150.341 1012.2 150.136V150.097C1012.2 149.6 1012.06 149.216 1011.78 148.943C1011.51 148.67 1011.09 148.534 1010.55 148.534C1009.97 148.534 1009.52 148.661 1009.19 148.915C1008.87 149.165 1008.64 149.443 1008.52 149.75L1006.92 149.386C1007.11 148.856 1007.39 148.428 1007.75 148.102C1008.12 147.773 1008.54 147.534 1009.02 147.386C1009.49 147.235 1010 147.159 1010.52 147.159C1010.87 147.159 1011.24 147.201 1011.63 147.284C1012.02 147.364 1012.39 147.511 1012.73 147.727C1013.08 147.943 1013.36 148.252 1013.58 148.653C1013.8 149.051 1013.91 149.568 1013.91 150.205V156H1012.25V154.807H1012.18C1012.07 155.027 1011.91 155.242 1011.69 155.455C1011.47 155.667 1011.19 155.843 1010.84 155.983C1010.5 156.123 1010.08 156.193 1009.6 156.193ZM1009.97 154.83C1010.44 154.83 1010.84 154.737 1011.18 154.551C1011.51 154.366 1011.77 154.123 1011.94 153.824C1012.12 153.521 1012.21 153.197 1012.21 152.852V151.727C1012.15 151.788 1012.03 151.845 1011.86 151.898C1011.69 151.947 1011.49 151.991 1011.27 152.028C1011.05 152.062 1010.84 152.095 1010.63 152.125C1010.42 152.152 1010.25 152.174 1010.11 152.193C1009.78 152.235 1009.48 152.305 1009.2 152.403C1008.94 152.502 1008.72 152.644 1008.56 152.83C1008.4 153.011 1008.32 153.254 1008.32 153.557C1008.32 153.977 1008.47 154.295 1008.78 154.511C1009.09 154.723 1009.49 154.83 1009.97 154.83ZM1016.2 156V147.273H1017.84V148.659H1017.93C1018.09 148.189 1018.37 147.82 1018.77 147.551C1019.18 147.278 1019.63 147.142 1020.14 147.142C1020.25 147.142 1020.38 147.146 1020.52 147.153C1020.67 147.161 1020.78 147.17 1020.87 147.182V148.807C1020.8 148.788 1020.68 148.767 1020.5 148.744C1020.33 148.718 1020.15 148.705 1019.98 148.705C1019.58 148.705 1019.22 148.79 1018.91 148.96C1018.6 149.127 1018.35 149.36 1018.17 149.659C1017.99 149.955 1017.89 150.292 1017.89 150.67V156H1016.2ZM1023.7 159.273C1023.45 159.273 1023.22 159.252 1023.01 159.21C1022.8 159.172 1022.64 159.131 1022.54 159.085L1022.95 157.693C1023.26 157.777 1023.54 157.813 1023.78 157.801C1024.02 157.79 1024.24 157.699 1024.42 157.528C1024.61 157.358 1024.78 157.08 1024.92 156.693L1025.13 156.114L1021.94 147.273H1023.76L1025.97 154.045H1026.06L1028.27 147.273H1030.09L1026.5 157.165C1026.33 157.619 1026.12 158.004 1025.86 158.318C1025.6 158.636 1025.29 158.875 1024.94 159.034C1024.58 159.193 1024.17 159.273 1023.7 159.273Z" fill="#333333"/>
<path d="M1230 149.5L1037 149.5" stroke="#B0BEC5" stroke-width="2" stroke-dasharray="4 4"/>
<path d="M1230 149.5L1171 149.5" stroke="#B0BEC5" stroke-width="2" stroke-dasharray="4 4"/>
<circle cx="1258" cy="150" r="14" fill="#9E9E9E"/>
<path d="M1256.52 148.461H1257.65C1258.09 148.461 1258.45 148.385 1258.73 148.234C1259.03 148.083 1259.24 147.875 1259.38 147.609C1259.52 147.344 1259.59 147.039 1259.59 146.695C1259.59 146.336 1259.53 146.029 1259.4 145.773C1259.27 145.513 1259.08 145.312 1258.82 145.172C1258.57 145.031 1258.24 144.961 1257.84 144.961C1257.51 144.961 1257.21 145.029 1256.94 145.164C1256.67 145.294 1256.46 145.482 1256.3 145.727C1256.15 145.966 1256.07 146.253 1256.07 146.586H1254.18C1254.18 145.982 1254.34 145.445 1254.66 144.977C1254.97 144.508 1255.41 144.141 1255.95 143.875C1256.51 143.604 1257.12 143.469 1257.81 143.469C1258.55 143.469 1259.19 143.591 1259.73 143.836C1260.29 144.076 1260.72 144.435 1261.02 144.914C1261.33 145.393 1261.48 145.987 1261.48 146.695C1261.48 147.018 1261.41 147.346 1261.26 147.68C1261.11 148.013 1260.88 148.318 1260.59 148.594C1260.29 148.865 1259.92 149.086 1259.48 149.258C1259.03 149.424 1258.52 149.508 1257.94 149.508H1256.52V148.461ZM1256.52 149.93V148.898H1257.94C1258.6 148.898 1259.17 148.977 1259.64 149.133C1260.11 149.289 1260.5 149.505 1260.8 149.781C1261.09 150.052 1261.31 150.362 1261.45 150.711C1261.59 151.06 1261.66 151.43 1261.66 151.82C1261.66 152.352 1261.56 152.826 1261.37 153.242C1261.18 153.654 1260.91 154.003 1260.56 154.289C1260.21 154.576 1259.8 154.792 1259.34 154.938C1258.87 155.083 1258.37 155.156 1257.82 155.156C1257.33 155.156 1256.86 155.089 1256.41 154.953C1255.97 154.818 1255.57 154.617 1255.21 154.352C1254.86 154.081 1254.58 153.745 1254.37 153.344C1254.16 152.938 1254.06 152.469 1254.06 151.938H1255.95C1255.95 152.276 1256.02 152.576 1256.18 152.836C1256.34 153.091 1256.57 153.292 1256.85 153.438C1257.14 153.583 1257.48 153.656 1257.85 153.656C1258.25 153.656 1258.59 153.586 1258.88 153.445C1259.16 153.305 1259.38 153.096 1259.53 152.82C1259.69 152.544 1259.77 152.211 1259.77 151.82C1259.77 151.378 1259.68 151.018 1259.51 150.742C1259.34 150.466 1259.09 150.263 1258.77 150.133C1258.46 149.997 1258.08 149.93 1257.65 149.93H1256.52Z" fill="white"/>
<path d="M1287.52 156V144.364H1291.66C1292.57 144.364 1293.32 144.528 1293.91 144.858C1294.51 145.187 1294.95 145.638 1295.25 146.21C1295.55 146.778 1295.69 147.419 1295.69 148.131C1295.69 148.847 1295.54 149.491 1295.24 150.062C1294.95 150.631 1294.5 151.081 1293.9 151.415C1293.31 151.744 1292.56 151.909 1291.66 151.909H1288.81V150.42H1291.5C1292.07 150.42 1292.54 150.322 1292.89 150.125C1293.25 149.924 1293.51 149.652 1293.68 149.307C1293.84 148.962 1293.93 148.57 1293.93 148.131C1293.93 147.691 1293.84 147.301 1293.68 146.96C1293.51 146.619 1293.25 146.352 1292.89 146.159C1292.53 145.966 1292.06 145.869 1291.48 145.869H1289.27V156H1287.52ZM1300.1 156.193C1299.55 156.193 1299.05 156.091 1298.6 155.886C1298.15 155.678 1297.8 155.377 1297.54 154.983C1297.28 154.589 1297.15 154.106 1297.15 153.534C1297.15 153.042 1297.25 152.636 1297.44 152.318C1297.62 152 1297.88 151.748 1298.2 151.562C1298.52 151.377 1298.88 151.237 1299.28 151.142C1299.68 151.047 1300.09 150.975 1300.5 150.926C1301.02 150.866 1301.45 150.816 1301.77 150.778C1302.1 150.737 1302.33 150.67 1302.48 150.58C1302.63 150.489 1302.7 150.341 1302.7 150.136V150.097C1302.7 149.6 1302.56 149.216 1302.28 148.943C1302.01 148.67 1301.59 148.534 1301.04 148.534C1300.47 148.534 1300.02 148.661 1299.69 148.915C1299.37 149.165 1299.14 149.443 1299.02 149.75L1297.42 149.386C1297.61 148.856 1297.88 148.428 1298.25 148.102C1298.62 147.773 1299.04 147.534 1299.52 147.386C1299.99 147.235 1300.49 147.159 1301.02 147.159C1301.37 147.159 1301.74 147.201 1302.13 147.284C1302.52 147.364 1302.89 147.511 1303.23 147.727C1303.58 147.943 1303.86 148.252 1304.08 148.653C1304.3 149.051 1304.41 149.568 1304.41 150.205V156H1302.75V154.807H1302.68C1302.57 155.027 1302.41 155.242 1302.19 155.455C1301.97 155.667 1301.68 155.843 1301.34 155.983C1300.99 156.123 1300.58 156.193 1300.1 156.193ZM1300.47 154.83C1300.94 154.83 1301.34 154.737 1301.67 154.551C1302.01 154.366 1302.27 154.123 1302.44 153.824C1302.62 153.521 1302.71 153.197 1302.71 152.852V151.727C1302.65 151.788 1302.53 151.845 1302.36 151.898C1302.19 151.947 1301.99 151.991 1301.77 152.028C1301.55 152.062 1301.34 152.095 1301.13 152.125C1300.92 152.152 1300.75 152.174 1300.61 152.193C1300.28 152.235 1299.98 152.305 1299.7 152.403C1299.43 152.502 1299.22 152.644 1299.05 152.83C1298.9 153.011 1298.82 153.254 1298.82 153.557C1298.82 153.977 1298.97 154.295 1299.28 154.511C1299.59 154.723 1299.99 154.83 1300.47 154.83ZM1307.46 159.273C1307.2 159.273 1306.97 159.252 1306.76 159.21C1306.55 159.172 1306.4 159.131 1306.3 159.085L1306.71 157.693C1307.02 157.777 1307.29 157.813 1307.53 157.801C1307.78 157.79 1307.99 157.699 1308.18 157.528C1308.37 157.358 1308.53 157.08 1308.68 156.693L1308.89 156.114L1305.69 147.273H1307.51L1309.72 154.045H1309.81L1312.02 147.273H1313.85L1310.25 157.165C1310.08 157.619 1309.87 158.004 1309.61 158.318C1309.36 158.636 1309.05 158.875 1308.69 159.034C1308.34 159.193 1307.92 159.273 1307.46 159.273ZM1315.47 156V147.273H1317.1V148.693H1317.21C1317.39 148.212 1317.69 147.837 1318.1 147.568C1318.51 147.295 1319.01 147.159 1319.58 147.159C1320.16 147.159 1320.65 147.295 1321.05 147.568C1321.45 147.841 1321.74 148.216 1321.93 148.693H1322.02C1322.23 148.227 1322.56 147.856 1323.01 147.58C1323.47 147.299 1324.01 147.159 1324.64 147.159C1325.43 147.159 1326.08 147.407 1326.58 147.903C1327.08 148.4 1327.33 149.148 1327.33 150.148V156H1325.63V150.307C1325.63 149.716 1325.47 149.288 1325.15 149.023C1324.83 148.758 1324.44 148.625 1324 148.625C1323.44 148.625 1323.01 148.795 1322.71 149.136C1322.4 149.473 1322.25 149.907 1322.25 150.438V156H1320.55V150.199C1320.55 149.725 1320.41 149.345 1320.11 149.057C1319.81 148.769 1319.43 148.625 1318.96 148.625C1318.63 148.625 1318.34 148.71 1318.06 148.881C1317.8 149.047 1317.58 149.28 1317.41 149.58C1317.25 149.879 1317.17 150.225 1317.17 150.619V156H1315.47ZM1333.39 156.176C1332.53 156.176 1331.79 155.992 1331.17 155.625C1330.55 155.254 1330.08 154.733 1329.74 154.062C1329.41 153.388 1329.24 152.598 1329.24 151.693C1329.24 150.799 1329.41 150.011 1329.74 149.33C1330.08 148.648 1330.55 148.116 1331.15 147.733C1331.76 147.35 1332.46 147.159 1333.27 147.159C1333.77 147.159 1334.24 147.241 1334.71 147.403C1335.17 147.566 1335.58 147.822 1335.95 148.17C1336.32 148.519 1336.61 148.972 1336.82 149.528C1337.03 150.081 1337.14 150.754 1337.14 151.545V152.148H1330.2V150.875H1335.47C1335.47 150.428 1335.38 150.032 1335.2 149.688C1335.02 149.339 1334.76 149.064 1334.43 148.864C1334.11 148.663 1333.73 148.562 1333.29 148.562C1332.81 148.562 1332.39 148.68 1332.04 148.915C1331.68 149.146 1331.41 149.449 1331.22 149.824C1331.03 150.195 1330.93 150.598 1330.93 151.034V152.028C1330.93 152.612 1331.04 153.108 1331.24 153.517C1331.45 153.926 1331.74 154.239 1332.11 154.455C1332.48 154.667 1332.91 154.773 1333.41 154.773C1333.73 154.773 1334.03 154.727 1334.29 154.636C1334.56 154.542 1334.79 154.402 1334.98 154.216C1335.17 154.03 1335.32 153.801 1335.42 153.528L1337.03 153.818C1336.9 154.292 1336.67 154.706 1336.34 155.062C1336.01 155.415 1335.59 155.689 1335.09 155.886C1334.6 156.08 1334.03 156.176 1333.39 156.176ZM1340.75 150.818V156H1339.05V147.273H1340.68V148.693H1340.79C1340.99 148.231 1341.3 147.86 1341.73 147.58C1342.16 147.299 1342.7 147.159 1343.36 147.159C1343.95 147.159 1344.48 147.284 1344.92 147.534C1345.37 147.78 1345.72 148.148 1345.96 148.636C1346.21 149.125 1346.33 149.729 1346.33 150.449V156H1344.63V150.653C1344.63 150.021 1344.47 149.527 1344.14 149.17C1343.81 148.811 1343.36 148.631 1342.78 148.631C1342.39 148.631 1342.04 148.716 1341.73 148.886C1341.43 149.057 1341.19 149.307 1341.01 149.636C1340.83 149.962 1340.75 150.356 1340.75 150.818ZM1352.71 147.273V148.636H1347.94V147.273H1352.71ZM1349.22 145.182H1350.92V153.438C1350.92 153.767 1350.97 154.015 1351.07 154.182C1351.16 154.345 1351.29 154.456 1351.45 154.517C1351.61 154.574 1351.78 154.602 1351.96 154.602C1352.1 154.602 1352.22 154.593 1352.32 154.574C1352.42 154.555 1352.5 154.54 1352.56 154.528L1352.87 155.932C1352.77 155.97 1352.63 156.008 1352.45 156.045C1352.26 156.087 1352.04 156.11 1351.76 156.114C1351.32 156.121 1350.9 156.042 1350.51 155.875C1350.13 155.708 1349.82 155.451 1349.58 155.102C1349.34 154.754 1349.22 154.316 1349.22 153.79V145.182ZM1369.11 150.182C1369.11 151.424 1368.89 152.492 1368.43 153.386C1367.98 154.277 1367.35 154.962 1366.56 155.443C1365.77 155.92 1364.88 156.159 1363.87 156.159C1362.87 156.159 1361.97 155.92 1361.18 155.443C1360.39 154.962 1359.77 154.275 1359.31 153.381C1358.86 152.487 1358.63 151.42 1358.63 150.182C1358.63 148.939 1358.86 147.873 1359.31 146.983C1359.77 146.089 1360.39 145.403 1361.18 144.926C1361.97 144.445 1362.87 144.205 1363.87 144.205C1364.88 144.205 1365.77 144.445 1366.56 144.926C1367.35 145.403 1367.98 146.089 1368.43 146.983C1368.89 147.873 1369.11 148.939 1369.11 150.182ZM1367.37 150.182C1367.37 149.235 1367.22 148.437 1366.91 147.79C1366.61 147.138 1366.19 146.646 1365.66 146.312C1365.14 145.975 1364.54 145.807 1363.87 145.807C1363.2 145.807 1362.61 145.975 1362.08 146.312C1361.55 146.646 1361.14 147.138 1360.83 147.79C1360.53 148.437 1360.37 149.235 1360.37 150.182C1360.37 151.129 1360.53 151.928 1360.83 152.58C1361.14 153.227 1361.55 153.72 1362.08 154.057C1362.61 154.39 1363.2 154.557 1363.87 154.557C1364.54 154.557 1365.14 154.39 1365.66 154.057C1366.19 153.72 1366.61 153.227 1366.91 152.58C1367.22 151.928 1367.37 151.129 1367.37 150.182ZM1371.19 159.273V147.273H1372.85V148.688H1372.99C1373.09 148.506 1373.23 148.295 1373.42 148.057C1373.6 147.818 1373.86 147.61 1374.19 147.432C1374.52 147.25 1374.96 147.159 1375.5 147.159C1376.2 147.159 1376.83 147.337 1377.38 147.693C1377.94 148.049 1378.37 148.562 1378.68 149.233C1379 149.903 1379.16 150.71 1379.16 151.653C1379.16 152.597 1379 153.405 1378.69 154.08C1378.38 154.75 1377.94 155.267 1377.39 155.631C1376.85 155.991 1376.22 156.17 1375.51 156.17C1374.98 156.17 1374.55 156.081 1374.21 155.903C1373.88 155.725 1373.62 155.517 1373.43 155.278C1373.24 155.04 1373.09 154.828 1372.99 154.642H1372.89V159.273H1371.19ZM1372.85 151.636C1372.85 152.25 1372.94 152.788 1373.12 153.25C1373.3 153.712 1373.56 154.074 1373.89 154.335C1374.23 154.593 1374.64 154.722 1375.13 154.722C1375.64 154.722 1376.07 154.587 1376.41 154.318C1376.75 154.045 1377 153.676 1377.18 153.21C1377.36 152.744 1377.45 152.22 1377.45 151.636C1377.45 151.061 1377.36 150.544 1377.18 150.085C1377.01 149.627 1376.76 149.265 1376.41 149C1376.07 148.735 1375.64 148.602 1375.13 148.602C1374.64 148.602 1374.22 148.729 1373.88 148.983C1373.55 149.237 1373.29 149.591 1373.12 150.045C1372.94 150.5 1372.85 151.03 1372.85 151.636ZM1385.16 147.273V148.636H1380.4V147.273H1385.16ZM1381.67 145.182H1383.37V153.438C1383.37 153.767 1383.42 154.015 1383.52 154.182C1383.62 154.345 1383.75 154.456 1383.9 154.517C1384.06 154.574 1384.23 154.602 1384.42 154.602C1384.55 154.602 1384.67 154.593 1384.78 154.574C1384.88 154.555 1384.96 154.54 1385.02 154.528L1385.32 155.932C1385.22 155.97 1385.08 156.008 1384.9 156.045C1384.72 156.087 1384.49 156.11 1384.22 156.114C1383.77 156.121 1383.36 156.042 1382.97 155.875C1382.58 155.708 1382.27 155.451 1382.03 155.102C1381.79 154.754 1381.67 154.316 1381.67 153.79V145.182ZM1387.07 156V147.273H1388.77V156H1387.07ZM1387.92 145.926C1387.63 145.926 1387.37 145.828 1387.16 145.631C1386.95 145.43 1386.85 145.191 1386.85 144.915C1386.85 144.634 1386.95 144.396 1387.16 144.199C1387.37 143.998 1387.63 143.898 1387.92 143.898C1388.22 143.898 1388.47 143.998 1388.68 144.199C1388.89 144.396 1389 144.634 1389 144.915C1389 145.191 1388.89 145.43 1388.68 145.631C1388.47 145.828 1388.22 145.926 1387.92 145.926ZM1394.75 156.176C1393.93 156.176 1393.22 155.989 1392.61 155.614C1392 155.239 1391.53 154.714 1391.19 154.04C1390.85 153.366 1390.68 152.578 1390.68 151.676C1390.68 150.771 1390.85 149.979 1391.19 149.301C1391.53 148.623 1392 148.097 1392.61 147.722C1393.22 147.347 1393.93 147.159 1394.75 147.159C1395.57 147.159 1396.28 147.347 1396.89 147.722C1397.5 148.097 1397.98 148.623 1398.31 149.301C1398.65 149.979 1398.82 150.771 1398.82 151.676C1398.82 152.578 1398.65 153.366 1398.31 154.04C1397.98 154.714 1397.5 155.239 1396.89 155.614C1396.28 155.989 1395.57 156.176 1394.75 156.176ZM1394.76 154.75C1395.29 154.75 1395.73 154.61 1396.07 154.33C1396.42 154.049 1396.68 153.676 1396.85 153.21C1397.02 152.744 1397.1 152.231 1397.1 151.67C1397.1 151.114 1397.02 150.602 1396.85 150.136C1396.68 149.667 1396.42 149.29 1396.07 149.006C1395.73 148.722 1395.29 148.58 1394.76 148.58C1394.22 148.58 1393.78 148.722 1393.43 149.006C1393.08 149.29 1392.82 149.667 1392.65 150.136C1392.48 150.602 1392.4 151.114 1392.4 151.67C1392.4 152.231 1392.48 152.744 1392.65 153.21C1392.82 153.676 1393.08 154.049 1393.43 154.33C1393.78 154.61 1394.22 154.75 1394.76 154.75ZM1402.44 150.818V156H1400.74V147.273H1402.37V148.693H1402.48C1402.68 148.231 1402.99 147.86 1403.42 147.58C1403.85 147.299 1404.4 147.159 1405.05 147.159C1405.65 147.159 1406.17 147.284 1406.61 147.534C1407.06 147.78 1407.41 148.148 1407.65 148.636C1407.9 149.125 1408.02 149.729 1408.02 150.449V156H1406.32V150.653C1406.32 150.021 1406.16 149.527 1405.83 149.17C1405.5 148.811 1405.05 148.631 1404.47 148.631C1404.08 148.631 1403.73 148.716 1403.42 148.886C1403.12 149.057 1402.88 149.307 1402.7 149.636C1402.53 149.962 1402.44 150.356 1402.44 150.818ZM1416.87 149.403L1415.33 149.676C1415.26 149.479 1415.16 149.292 1415.02 149.114C1414.88 148.936 1414.7 148.79 1414.46 148.676C1414.23 148.562 1413.93 148.506 1413.58 148.506C1413.1 148.506 1412.7 148.614 1412.38 148.83C1412.05 149.042 1411.89 149.316 1411.89 149.653C1411.89 149.945 1412 150.18 1412.22 150.358C1412.43 150.536 1412.78 150.682 1413.26 150.795L1414.65 151.114C1415.45 151.299 1416.05 151.585 1416.44 151.972C1416.84 152.358 1417.04 152.86 1417.04 153.477C1417.04 154 1416.88 154.466 1416.58 154.875C1416.28 155.28 1415.86 155.598 1415.33 155.83C1414.79 156.061 1414.17 156.176 1413.47 156.176C1412.49 156.176 1411.69 155.968 1411.08 155.551C1410.46 155.131 1410.08 154.534 1409.94 153.761L1411.58 153.511C1411.68 153.939 1411.89 154.263 1412.21 154.483C1412.53 154.699 1412.94 154.807 1413.46 154.807C1414.01 154.807 1414.46 154.691 1414.79 154.46C1415.12 154.225 1415.29 153.939 1415.29 153.602C1415.29 153.33 1415.19 153.1 1414.98 152.915C1414.78 152.729 1414.48 152.589 1414.06 152.494L1412.58 152.17C1411.77 151.985 1411.16 151.689 1410.77 151.284C1410.39 150.879 1410.19 150.366 1410.19 149.744C1410.19 149.229 1410.34 148.778 1410.63 148.392C1410.91 148.006 1411.31 147.705 1411.82 147.489C1412.33 147.269 1412.91 147.159 1413.56 147.159C1414.51 147.159 1415.25 147.364 1415.79 147.773C1416.33 148.178 1416.69 148.722 1416.87 149.403Z" fill="#333333"/>
</svg>
