<svg width="1920" height="300" viewBox="0 0 1920 300" fill="none" xmlns="http://www.w3.org/2000/svg">
<rect width="1920" height="300" fill="white"/>
<circle cx="500" cy="149.905" r="14" fill="#F37E20"/>
<path d="M501.453 143.491V154.905H499.57V145.726L496.781 146.671V145.116L501.227 143.491H501.453Z" fill="white"/>
<path d="M531.136 144.269V155.905H529.38V144.269H531.136ZM535.279 150.723V155.905H533.58V147.178H535.211V148.598H535.319C535.52 148.136 535.834 147.765 536.262 147.485C536.694 147.205 537.238 147.064 537.893 147.064C538.488 147.064 539.008 147.189 539.455 147.439C539.902 147.686 540.249 148.053 540.495 148.542C540.741 149.03 540.864 149.634 540.864 150.354V155.905H539.166V150.559C539.166 149.926 539.001 149.432 538.671 149.076C538.342 148.716 537.889 148.536 537.313 148.536C536.919 148.536 536.569 148.621 536.262 148.792C535.959 148.962 535.719 149.212 535.541 149.542C535.366 149.867 535.279 150.261 535.279 150.723ZM549.707 149.309L548.167 149.581C548.102 149.384 548 149.197 547.86 149.019C547.724 148.841 547.538 148.695 547.303 148.581C547.068 148.468 546.775 148.411 546.423 148.411C545.941 148.411 545.54 148.519 545.218 148.735C544.896 148.947 544.735 149.222 544.735 149.559C544.735 149.85 544.843 150.085 545.059 150.263C545.275 150.441 545.623 150.587 546.104 150.701L547.491 151.019C548.294 151.205 548.892 151.491 549.286 151.877C549.68 152.263 549.877 152.765 549.877 153.383C549.877 153.905 549.726 154.371 549.423 154.78C549.123 155.186 548.705 155.504 548.167 155.735C547.633 155.966 547.013 156.081 546.309 156.081C545.332 156.081 544.534 155.873 543.917 155.456C543.299 155.036 542.921 154.439 542.78 153.667L544.423 153.417C544.525 153.845 544.735 154.169 545.053 154.388C545.371 154.604 545.786 154.712 546.298 154.712C546.854 154.712 547.299 154.597 547.633 154.366C547.966 154.131 548.133 153.845 548.133 153.508C548.133 153.235 548.03 153.006 547.826 152.82C547.625 152.634 547.316 152.494 546.9 152.4L545.423 152.076C544.608 151.89 544.006 151.595 543.616 151.189C543.229 150.784 543.036 150.271 543.036 149.65C543.036 149.134 543.18 148.684 543.468 148.297C543.756 147.911 544.154 147.61 544.661 147.394C545.169 147.174 545.75 147.064 546.405 147.064C547.349 147.064 548.091 147.269 548.633 147.678C549.174 148.083 549.532 148.627 549.707 149.309ZM557.297 152.286V147.178H559.002V155.905H557.331V154.394H557.241C557.04 154.86 556.718 155.248 556.275 155.559C555.835 155.866 555.288 156.019 554.633 156.019C554.072 156.019 553.576 155.896 553.144 155.65C552.716 155.4 552.379 155.03 552.133 154.542C551.89 154.053 551.769 153.449 551.769 152.729V147.178H553.468V152.525C553.468 153.119 553.633 153.593 553.962 153.945C554.292 154.297 554.72 154.473 555.246 154.473C555.564 154.473 555.881 154.394 556.195 154.235C556.513 154.076 556.777 153.835 556.985 153.513C557.197 153.191 557.301 152.782 557.297 152.286ZM561.309 155.905V147.178H562.951V148.564H563.042C563.201 148.095 563.481 147.725 563.882 147.456C564.288 147.184 564.746 147.047 565.257 147.047C565.364 147.047 565.489 147.051 565.632 147.059C565.78 147.066 565.896 147.076 565.979 147.087V148.712C565.911 148.693 565.79 148.672 565.615 148.65C565.441 148.623 565.267 148.61 565.093 148.61C564.691 148.61 564.333 148.695 564.019 148.866C563.708 149.032 563.462 149.265 563.28 149.564C563.098 149.86 563.007 150.197 563.007 150.576V155.905H561.309ZM569.935 156.098C569.382 156.098 568.882 155.996 568.435 155.792C567.988 155.583 567.634 155.282 567.372 154.888C567.115 154.494 566.986 154.011 566.986 153.439C566.986 152.947 567.081 152.542 567.27 152.223C567.46 151.905 567.715 151.653 568.037 151.468C568.359 151.282 568.719 151.142 569.117 151.047C569.514 150.953 569.92 150.881 570.333 150.831C570.855 150.771 571.28 150.722 571.605 150.684C571.931 150.642 572.168 150.576 572.316 150.485C572.463 150.394 572.537 150.246 572.537 150.042V150.002C572.537 149.506 572.397 149.121 572.117 148.848C571.84 148.576 571.427 148.439 570.878 148.439C570.306 148.439 569.855 148.566 569.526 148.82C569.2 149.07 568.975 149.348 568.85 149.655L567.253 149.292C567.442 148.761 567.719 148.333 568.083 148.008C568.45 147.678 568.872 147.439 569.35 147.292C569.827 147.14 570.329 147.064 570.855 147.064C571.204 147.064 571.573 147.106 571.963 147.189C572.357 147.269 572.725 147.417 573.066 147.633C573.41 147.848 573.692 148.157 573.912 148.559C574.132 148.956 574.242 149.473 574.242 150.11V155.905H572.583V154.712H572.514C572.405 154.932 572.24 155.148 572.02 155.36C571.8 155.572 571.518 155.748 571.174 155.888C570.829 156.028 570.416 156.098 569.935 156.098ZM570.304 154.735C570.774 154.735 571.175 154.642 571.509 154.456C571.846 154.271 572.102 154.028 572.276 153.729C572.454 153.426 572.543 153.102 572.543 152.758V151.633C572.482 151.693 572.365 151.75 572.191 151.803C572.02 151.852 571.825 151.896 571.605 151.934C571.386 151.968 571.172 152 570.963 152.03C570.755 152.057 570.581 152.08 570.441 152.098C570.111 152.14 569.81 152.21 569.537 152.309C569.268 152.407 569.052 152.549 568.889 152.735C568.73 152.917 568.651 153.159 568.651 153.462C568.651 153.883 568.806 154.201 569.117 154.417C569.427 154.629 569.823 154.735 570.304 154.735ZM578.227 150.723V155.905H576.528V147.178H578.159V148.598H578.267C578.468 148.136 578.782 147.765 579.21 147.485C579.642 147.205 580.186 147.064 580.841 147.064C581.436 147.064 581.957 147.189 582.403 147.439C582.85 147.686 583.197 148.053 583.443 148.542C583.689 149.03 583.813 149.634 583.813 150.354V155.905H582.114V150.559C582.114 149.926 581.949 149.432 581.619 149.076C581.29 148.716 580.837 148.536 580.261 148.536C579.868 148.536 579.517 148.621 579.21 148.792C578.907 148.962 578.667 149.212 578.489 149.542C578.314 149.867 578.227 150.261 578.227 150.723ZM589.791 156.081C588.946 156.081 588.219 155.89 587.609 155.508C587.003 155.121 586.537 154.589 586.212 153.911C585.886 153.233 585.723 152.456 585.723 151.581C585.723 150.695 585.89 149.913 586.223 149.235C586.556 148.553 587.026 148.021 587.632 147.638C588.238 147.256 588.952 147.064 589.774 147.064C590.437 147.064 591.028 147.187 591.547 147.434C592.066 147.676 592.484 148.017 592.802 148.456C593.124 148.896 593.316 149.409 593.376 149.996H591.723C591.632 149.587 591.424 149.235 591.098 148.939C590.776 148.644 590.344 148.496 589.802 148.496C589.329 148.496 588.914 148.621 588.558 148.871C588.206 149.117 587.931 149.47 587.734 149.928C587.537 150.383 587.439 150.92 587.439 151.542C587.439 152.178 587.535 152.727 587.729 153.189C587.922 153.651 588.195 154.009 588.547 154.263C588.903 154.517 589.321 154.644 589.802 154.644C590.124 154.644 590.416 154.585 590.677 154.468C590.943 154.347 591.164 154.174 591.342 153.951C591.524 153.727 591.651 153.458 591.723 153.144H593.376C593.316 153.708 593.132 154.212 592.825 154.655C592.518 155.098 592.107 155.447 591.592 155.701C591.081 155.955 590.481 156.081 589.791 156.081ZM598.978 156.081C598.119 156.081 597.378 155.898 596.757 155.53C596.139 155.159 595.662 154.638 595.325 153.968C594.992 153.294 594.825 152.504 594.825 151.598C594.825 150.705 594.992 149.917 595.325 149.235C595.662 148.553 596.132 148.021 596.734 147.638C597.34 147.256 598.049 147.064 598.859 147.064C599.352 147.064 599.829 147.146 600.291 147.309C600.753 147.472 601.168 147.727 601.535 148.076C601.903 148.424 602.192 148.877 602.405 149.434C602.617 149.987 602.723 150.659 602.723 151.451V152.053H595.785V150.78H601.058C601.058 150.333 600.967 149.937 600.785 149.593C600.603 149.244 600.348 148.97 600.018 148.769C599.692 148.568 599.31 148.468 598.871 148.468C598.393 148.468 597.977 148.585 597.621 148.82C597.268 149.051 596.996 149.354 596.802 149.729C596.613 150.1 596.518 150.504 596.518 150.939V151.934C596.518 152.517 596.621 153.013 596.825 153.422C597.033 153.831 597.323 154.144 597.694 154.36C598.066 154.572 598.499 154.678 598.996 154.678C599.317 154.678 599.611 154.633 599.876 154.542C600.141 154.447 600.371 154.307 600.564 154.121C600.757 153.936 600.905 153.706 601.007 153.434L602.615 153.723C602.486 154.197 602.255 154.612 601.922 154.968C601.592 155.32 601.177 155.595 600.677 155.792C600.181 155.985 599.615 156.081 598.978 156.081ZM610.782 144.269V155.905H609.026V144.269H610.782ZM614.925 150.723V155.905H613.227V147.178H614.857V148.598H614.965C615.166 148.136 615.48 147.765 615.908 147.485C616.34 147.205 616.884 147.064 617.539 147.064C618.134 147.064 618.655 147.189 619.102 147.439C619.549 147.686 619.895 148.053 620.141 148.542C620.388 149.03 620.511 149.634 620.511 150.354V155.905H618.812V150.559C618.812 149.926 618.647 149.432 618.318 149.076C617.988 148.716 617.535 148.536 616.96 148.536C616.566 148.536 616.215 148.621 615.908 148.792C615.605 148.962 615.365 149.212 615.187 149.542C615.013 149.867 614.925 150.261 614.925 150.723ZM626.967 147.178V148.542H622.035V147.178H626.967ZM623.387 155.905V146.167C623.387 145.621 623.506 145.169 623.745 144.809C623.984 144.445 624.3 144.174 624.694 143.996C625.088 143.814 625.516 143.723 625.978 143.723C626.319 143.723 626.61 143.752 626.853 143.809C627.095 143.862 627.275 143.911 627.393 143.956L626.995 145.331C626.915 145.309 626.813 145.282 626.688 145.252C626.563 145.218 626.412 145.201 626.234 145.201C625.821 145.201 625.525 145.303 625.347 145.508C625.173 145.712 625.086 146.008 625.086 146.394V155.905H623.387ZM632.076 156.081C631.258 156.081 630.544 155.894 629.934 155.519C629.324 155.144 628.85 154.619 628.513 153.945C628.176 153.271 628.008 152.483 628.008 151.581C628.008 150.676 628.176 149.884 628.513 149.206C628.85 148.528 629.324 148.002 629.934 147.627C630.544 147.252 631.258 147.064 632.076 147.064C632.894 147.064 633.608 147.252 634.218 147.627C634.828 148.002 635.301 148.528 635.638 149.206C635.975 149.884 636.144 150.676 636.144 151.581C636.144 152.483 635.975 153.271 635.638 153.945C635.301 154.619 634.828 155.144 634.218 155.519C633.608 155.894 632.894 156.081 632.076 156.081ZM632.081 154.655C632.612 154.655 633.051 154.515 633.4 154.235C633.748 153.955 634.006 153.581 634.172 153.116C634.343 152.65 634.428 152.136 634.428 151.576C634.428 151.019 634.343 150.508 634.172 150.042C634.006 149.572 633.748 149.195 633.4 148.911C633.051 148.627 632.612 148.485 632.081 148.485C631.547 148.485 631.104 148.627 630.752 148.911C630.403 149.195 630.144 149.572 629.973 150.042C629.807 150.508 629.723 151.019 629.723 151.576C629.723 152.136 629.807 152.65 629.973 153.116C630.144 153.581 630.403 153.955 630.752 154.235C631.104 154.515 631.547 154.655 632.081 154.655Z" fill="#333333"/>
<path d="M850.685 149.405L643 149.405" stroke="#F37E20" stroke-width="2"/>
<circle cx="878.916" cy="149.905" r="14" fill="#F37E20"/>
<path d="M882.854 153.405V154.905H875.229V153.616L878.932 149.577C879.338 149.119 879.658 148.723 879.893 148.39C880.127 148.056 880.291 147.757 880.385 147.491C880.484 147.22 880.533 146.957 880.533 146.702C880.533 146.343 880.465 146.028 880.33 145.757C880.2 145.481 880.007 145.265 879.752 145.108C879.497 144.947 879.187 144.866 878.822 144.866C878.4 144.866 878.046 144.957 877.76 145.14C877.473 145.322 877.257 145.575 877.111 145.897C876.965 146.215 876.893 146.58 876.893 146.991H875.01C875.01 146.33 875.161 145.726 875.463 145.179C875.765 144.627 876.202 144.189 876.775 143.866C877.348 143.538 878.038 143.374 878.846 143.374C879.606 143.374 880.252 143.502 880.783 143.757C881.314 144.012 881.718 144.374 881.994 144.843C882.275 145.312 882.416 145.866 882.416 146.507C882.416 146.861 882.359 147.213 882.244 147.562C882.13 147.91 881.965 148.259 881.752 148.608C881.544 148.952 881.296 149.299 881.01 149.647C880.723 149.991 880.408 150.34 880.064 150.694L877.604 153.405H882.854Z" fill="white"/>
<path d="M908.648 155.905V144.269H912.796C913.701 144.269 914.451 144.434 915.046 144.763C915.64 145.093 916.085 145.544 916.381 146.116C916.676 146.684 916.824 147.324 916.824 148.036C916.824 148.752 916.674 149.396 916.375 149.968C916.08 150.536 915.633 150.987 915.034 151.32C914.439 151.65 913.691 151.814 912.79 151.814H909.938V150.326H912.631C913.203 150.326 913.667 150.227 914.023 150.03C914.379 149.83 914.64 149.557 914.807 149.212C914.974 148.867 915.057 148.475 915.057 148.036C915.057 147.597 914.974 147.206 914.807 146.866C914.64 146.525 914.377 146.258 914.017 146.064C913.661 145.871 913.191 145.775 912.608 145.775H910.403V155.905H908.648ZM922.337 156.081C921.518 156.081 920.804 155.894 920.195 155.519C919.585 155.144 919.111 154.619 918.774 153.945C918.437 153.271 918.268 152.483 918.268 151.581C918.268 150.676 918.437 149.884 918.774 149.206C919.111 148.528 919.585 148.002 920.195 147.627C920.804 147.252 921.518 147.064 922.337 147.064C923.155 147.064 923.869 147.252 924.479 147.627C925.088 148.002 925.562 148.528 925.899 149.206C926.236 149.884 926.405 150.676 926.405 151.581C926.405 152.483 926.236 153.271 925.899 153.945C925.562 154.619 925.088 155.144 924.479 155.519C923.869 155.894 923.155 156.081 922.337 156.081ZM922.342 154.655C922.873 154.655 923.312 154.515 923.66 154.235C924.009 153.955 924.266 153.581 924.433 153.116C924.604 152.65 924.689 152.136 924.689 151.576C924.689 151.019 924.604 150.508 924.433 150.042C924.266 149.572 924.009 149.195 923.66 148.911C923.312 148.627 922.873 148.485 922.342 148.485C921.808 148.485 921.365 148.627 921.013 148.911C920.664 149.195 920.405 149.572 920.234 150.042C920.068 150.508 919.984 151.019 919.984 151.576C919.984 152.136 920.068 152.65 920.234 153.116C920.405 153.581 920.664 153.955 921.013 154.235C921.365 154.515 921.808 154.655 922.342 154.655ZM930.024 144.269V155.905H928.325V144.269H930.024ZM932.333 155.905V147.178H934.032V155.905H932.333ZM933.191 145.831C932.896 145.831 932.642 145.733 932.43 145.536C932.222 145.335 932.118 145.097 932.118 144.82C932.118 144.54 932.222 144.301 932.43 144.104C932.642 143.903 932.896 143.803 933.191 143.803C933.487 143.803 933.739 143.903 933.947 144.104C934.159 144.301 934.265 144.54 934.265 144.82C934.265 145.097 934.159 145.335 933.947 145.536C933.739 145.733 933.487 145.831 933.191 145.831ZM940.018 156.081C939.173 156.081 938.446 155.89 937.836 155.508C937.23 155.121 936.764 154.589 936.438 153.911C936.113 153.233 935.95 152.456 935.95 151.581C935.95 150.695 936.116 149.913 936.45 149.235C936.783 148.553 937.253 148.021 937.859 147.638C938.465 147.256 939.179 147.064 940.001 147.064C940.664 147.064 941.255 147.187 941.774 147.434C942.293 147.676 942.711 148.017 943.029 148.456C943.351 148.896 943.543 149.409 943.603 149.996H941.95C941.859 149.587 941.651 149.235 941.325 148.939C941.003 148.644 940.571 148.496 940.029 148.496C939.556 148.496 939.141 148.621 938.785 148.871C938.433 149.117 938.158 149.47 937.961 149.928C937.764 150.383 937.666 150.92 937.666 151.542C937.666 152.178 937.762 152.727 937.955 153.189C938.149 153.651 938.421 154.009 938.774 154.263C939.13 154.517 939.548 154.644 940.029 154.644C940.351 154.644 940.643 154.585 940.904 154.468C941.169 154.347 941.391 154.174 941.569 153.951C941.751 153.727 941.878 153.458 941.95 153.144H943.603C943.543 153.708 943.359 154.212 943.052 154.655C942.745 155.098 942.334 155.447 941.819 155.701C941.308 155.955 940.707 156.081 940.018 156.081ZM946.518 159.178C946.264 159.178 946.033 159.157 945.825 159.116C945.616 159.078 945.461 159.036 945.359 158.991L945.768 157.598C946.078 157.682 946.355 157.718 946.597 157.706C946.84 157.695 947.054 157.604 947.239 157.434C947.429 157.263 947.595 156.985 947.739 156.598L947.95 156.019L944.756 147.178H946.575L948.785 153.951H948.876L951.086 147.178H952.91L949.313 157.07C949.147 157.525 948.934 157.909 948.677 158.223C948.419 158.542 948.112 158.78 947.756 158.939C947.4 159.098 946.987 159.178 946.518 159.178ZM965.272 147.326C965.211 146.788 964.961 146.371 964.522 146.076C964.082 145.776 963.529 145.627 962.863 145.627C962.385 145.627 961.973 145.703 961.624 145.854C961.276 146.002 961.005 146.206 960.812 146.468C960.622 146.725 960.527 147.019 960.527 147.348C960.527 147.625 960.592 147.864 960.721 148.064C960.853 148.265 961.026 148.434 961.238 148.57C961.454 148.703 961.685 148.814 961.931 148.905C962.177 148.992 962.414 149.064 962.641 149.121L963.777 149.417C964.149 149.508 964.529 149.631 964.919 149.786C965.31 149.941 965.671 150.146 966.005 150.4C966.338 150.653 966.607 150.968 966.812 151.343C967.02 151.718 967.124 152.167 967.124 152.689C967.124 153.348 966.954 153.934 966.613 154.445C966.276 154.956 965.785 155.36 965.141 155.655C964.501 155.951 963.726 156.098 962.817 156.098C961.946 156.098 961.192 155.96 960.556 155.684C959.919 155.407 959.421 155.015 959.062 154.508C958.702 153.996 958.503 153.39 958.465 152.689H960.226C960.26 153.11 960.397 153.46 960.635 153.741C960.878 154.017 961.187 154.223 961.562 154.36C961.94 154.492 962.355 154.559 962.806 154.559C963.302 154.559 963.743 154.481 964.13 154.326C964.52 154.167 964.827 153.947 965.05 153.667C965.274 153.383 965.385 153.051 965.385 152.672C965.385 152.328 965.287 152.045 965.09 151.826C964.897 151.606 964.634 151.424 964.3 151.28C963.971 151.136 963.598 151.009 963.181 150.9L961.806 150.525C960.874 150.271 960.135 149.898 959.59 149.405C959.048 148.913 958.777 148.261 958.777 147.451C958.777 146.78 958.959 146.195 959.323 145.695C959.687 145.195 960.179 144.807 960.8 144.53C961.421 144.25 962.122 144.11 962.902 144.11C963.69 144.11 964.385 144.248 964.988 144.525C965.594 144.801 966.071 145.182 966.419 145.667C966.768 146.148 966.95 146.701 966.965 147.326H965.272ZM974.638 152.286V147.178H976.343V155.905H974.672V154.394H974.581C974.381 154.86 974.059 155.248 973.615 155.559C973.176 155.866 972.629 156.019 971.973 156.019C971.413 156.019 970.917 155.896 970.485 155.65C970.057 155.4 969.72 155.03 969.473 154.542C969.231 154.053 969.11 153.449 969.11 152.729V147.178H970.809V152.525C970.809 153.119 970.973 153.593 971.303 153.945C971.632 154.297 972.06 154.473 972.587 154.473C972.905 154.473 973.221 154.394 973.536 154.235C973.854 154.076 974.117 153.835 974.326 153.513C974.538 153.191 974.642 152.782 974.638 152.286ZM978.649 155.905V147.178H980.28V148.598H980.388C980.57 148.117 980.867 147.742 981.28 147.473C981.693 147.201 982.187 147.064 982.763 147.064C983.346 147.064 983.835 147.201 984.229 147.473C984.627 147.746 984.92 148.121 985.11 148.598H985.2C985.409 148.133 985.74 147.761 986.195 147.485C986.649 147.205 987.191 147.064 987.82 147.064C988.611 147.064 989.257 147.312 989.757 147.809C990.261 148.305 990.513 149.053 990.513 150.053V155.905H988.814V150.212C988.814 149.621 988.653 149.193 988.331 148.928C988.009 148.663 987.625 148.53 987.178 148.53C986.625 148.53 986.195 148.701 985.888 149.042C985.581 149.379 985.428 149.812 985.428 150.343V155.905H983.735V150.104C983.735 149.631 983.587 149.25 983.291 148.962C982.996 148.674 982.611 148.53 982.138 148.53C981.816 148.53 981.519 148.616 981.246 148.786C980.977 148.953 980.759 149.186 980.592 149.485C980.43 149.784 980.348 150.131 980.348 150.525V155.905H978.649ZM992.814 155.905V147.178H994.445V148.598H994.553C994.734 148.117 995.032 147.742 995.445 147.473C995.857 147.201 996.352 147.064 996.928 147.064C997.511 147.064 998 147.201 998.393 147.473C998.791 147.746 999.085 148.121 999.274 148.598H999.365C999.573 148.133 999.905 147.761 1000.36 147.485C1000.81 147.205 1001.36 147.064 1001.98 147.064C1002.78 147.064 1003.42 147.312 1003.92 147.809C1004.43 148.305 1004.68 149.053 1004.68 150.053V155.905H1002.98V150.212C1002.98 149.621 1002.82 149.193 1002.5 148.928C1002.17 148.663 1001.79 148.53 1001.34 148.53C1000.79 148.53 1000.36 148.701 1000.05 149.042C999.746 149.379 999.592 149.812 999.592 150.343V155.905H997.899V150.104C997.899 149.631 997.751 149.25 997.456 148.962C997.161 148.674 996.776 148.53 996.303 148.53C995.981 148.53 995.683 148.616 995.411 148.786C995.142 148.953 994.924 149.186 994.757 149.485C994.594 149.784 994.513 150.131 994.513 150.525V155.905H992.814ZM1009.52 156.098C1008.97 156.098 1008.47 155.996 1008.02 155.792C1007.57 155.583 1007.22 155.282 1006.96 154.888C1006.7 154.494 1006.57 154.011 1006.57 153.439C1006.57 152.947 1006.66 152.542 1006.85 152.223C1007.04 151.905 1007.3 151.653 1007.62 151.468C1007.94 151.282 1008.3 151.142 1008.7 151.047C1009.1 150.953 1009.5 150.881 1009.92 150.831C1010.44 150.771 1010.86 150.722 1011.19 150.684C1011.51 150.642 1011.75 150.576 1011.9 150.485C1012.05 150.394 1012.12 150.246 1012.12 150.042V150.002C1012.12 149.506 1011.98 149.121 1011.7 148.848C1011.42 148.576 1011.01 148.439 1010.46 148.439C1009.89 148.439 1009.44 148.566 1009.11 148.82C1008.78 149.07 1008.56 149.348 1008.43 149.655L1006.84 149.292C1007.03 148.761 1007.3 148.333 1007.67 148.008C1008.03 147.678 1008.46 147.439 1008.93 147.292C1009.41 147.14 1009.91 147.064 1010.44 147.064C1010.79 147.064 1011.16 147.106 1011.55 147.189C1011.94 147.269 1012.31 147.417 1012.65 147.633C1012.99 147.848 1013.28 148.157 1013.5 148.559C1013.72 148.956 1013.83 149.473 1013.83 150.11V155.905H1012.17V154.712H1012.1C1011.99 154.932 1011.82 155.148 1011.6 155.36C1011.38 155.572 1011.1 155.748 1010.76 155.888C1010.41 156.028 1010 156.098 1009.52 156.098ZM1009.89 154.735C1010.36 154.735 1010.76 154.642 1011.09 154.456C1011.43 154.271 1011.69 154.028 1011.86 153.729C1012.04 153.426 1012.13 153.102 1012.13 152.758V151.633C1012.07 151.693 1011.95 151.75 1011.77 151.803C1011.6 151.852 1011.41 151.896 1011.19 151.934C1010.97 151.968 1010.76 152 1010.55 152.03C1010.34 152.057 1010.16 152.08 1010.02 152.098C1009.69 152.14 1009.39 152.21 1009.12 152.309C1008.85 152.407 1008.64 152.549 1008.47 152.735C1008.31 152.917 1008.23 153.159 1008.23 153.462C1008.23 153.883 1008.39 154.201 1008.7 154.417C1009.01 154.629 1009.41 154.735 1009.89 154.735ZM1016.11 155.905V147.178H1017.75V148.564H1017.84C1018 148.095 1018.28 147.725 1018.69 147.456C1019.09 147.184 1019.55 147.047 1020.06 147.047C1020.17 147.047 1020.29 147.051 1020.44 147.059C1020.58 147.066 1020.7 147.076 1020.78 147.087V148.712C1020.71 148.693 1020.59 148.672 1020.42 148.65C1020.24 148.623 1020.07 148.61 1019.9 148.61C1019.49 148.61 1019.14 148.695 1018.82 148.866C1018.51 149.032 1018.27 149.265 1018.08 149.564C1017.9 149.86 1017.81 150.197 1017.81 150.576V155.905H1016.11ZM1023.62 159.178C1023.36 159.178 1023.13 159.157 1022.92 159.116C1022.71 159.078 1022.56 159.036 1022.46 158.991L1022.87 157.598C1023.18 157.682 1023.45 157.718 1023.7 157.706C1023.94 157.695 1024.15 157.604 1024.34 157.434C1024.53 157.263 1024.69 156.985 1024.84 156.598L1025.05 156.019L1021.85 147.178H1023.67L1025.88 153.951H1025.97L1028.18 147.178H1030.01L1026.41 157.07C1026.24 157.525 1026.03 157.909 1025.78 158.223C1025.52 158.542 1025.21 158.78 1024.85 158.939C1024.5 159.098 1024.09 159.178 1023.62 159.178Z" fill="#333333"/>
<path d="M1229.6 149.405L1036.92 149.405" stroke="#B0BEC5" stroke-width="2" stroke-dasharray="4 4"/>
<circle cx="1257.83" cy="149.905" r="14" fill="#9E9E9E"/>
<path d="M1256.36 148.366H1257.48C1257.92 148.366 1258.28 148.291 1258.57 148.14C1258.86 147.989 1259.07 147.78 1259.21 147.515C1259.36 147.249 1259.43 146.944 1259.43 146.601C1259.43 146.241 1259.36 145.934 1259.23 145.679C1259.11 145.418 1258.91 145.218 1258.65 145.077C1258.4 144.937 1258.07 144.866 1257.68 144.866C1257.34 144.866 1257.04 144.934 1256.77 145.069C1256.5 145.2 1256.29 145.387 1256.14 145.632C1255.98 145.871 1255.9 146.158 1255.9 146.491H1254.01C1254.01 145.887 1254.17 145.351 1254.49 144.882C1254.81 144.413 1255.24 144.046 1255.79 143.78C1256.34 143.509 1256.96 143.374 1257.64 143.374C1258.38 143.374 1259.02 143.496 1259.57 143.741C1260.12 143.981 1260.55 144.34 1260.86 144.819C1261.16 145.299 1261.32 145.892 1261.32 146.601C1261.32 146.924 1261.24 147.252 1261.09 147.585C1260.94 147.918 1260.71 148.223 1260.42 148.499C1260.12 148.77 1259.75 148.991 1259.31 149.163C1258.87 149.33 1258.35 149.413 1257.77 149.413H1256.36V148.366ZM1256.36 149.835V148.804H1257.77C1258.44 148.804 1259 148.882 1259.47 149.038C1259.95 149.194 1260.33 149.41 1260.63 149.687C1260.93 149.957 1261.14 150.267 1261.28 150.616C1261.42 150.965 1261.49 151.335 1261.49 151.726C1261.49 152.257 1261.39 152.731 1261.2 153.147C1261.01 153.559 1260.74 153.908 1260.39 154.194C1260.05 154.481 1259.64 154.697 1259.17 154.843C1258.7 154.989 1258.2 155.062 1257.65 155.062C1257.16 155.062 1256.69 154.994 1256.25 154.858C1255.8 154.723 1255.4 154.522 1255.04 154.257C1254.69 153.986 1254.41 153.65 1254.2 153.249C1254 152.843 1253.89 152.374 1253.89 151.843H1255.78C1255.78 152.181 1255.86 152.481 1256.01 152.741C1256.17 152.996 1256.4 153.197 1256.68 153.343C1256.98 153.489 1257.31 153.562 1257.68 153.562C1258.08 153.562 1258.42 153.491 1258.71 153.351C1258.99 153.21 1259.21 153.002 1259.36 152.726C1259.52 152.45 1259.6 152.116 1259.6 151.726C1259.6 151.283 1259.51 150.924 1259.34 150.647C1259.17 150.371 1258.92 150.168 1258.61 150.038C1258.29 149.903 1257.91 149.835 1257.48 149.835H1256.36Z" fill="white"/>
<path d="M1287.35 155.905V144.269H1291.5C1292.4 144.269 1293.15 144.434 1293.75 144.763C1294.34 145.093 1294.79 145.544 1295.08 146.116C1295.38 146.684 1295.52 147.324 1295.52 148.036C1295.52 148.752 1295.38 149.396 1295.08 149.968C1294.78 150.536 1294.33 150.987 1293.74 151.32C1293.14 151.65 1292.39 151.814 1291.49 151.814H1288.64V150.326H1291.33C1291.9 150.326 1292.37 150.227 1292.72 150.03C1293.08 149.83 1293.34 149.557 1293.51 149.212C1293.67 148.867 1293.76 148.475 1293.76 148.036C1293.76 147.597 1293.67 147.206 1293.51 146.866C1293.34 146.525 1293.08 146.258 1292.72 146.064C1292.36 145.871 1291.89 145.775 1291.31 145.775H1289.1V155.905H1287.35ZM1299.93 156.098C1299.38 156.098 1298.88 155.996 1298.43 155.792C1297.99 155.583 1297.63 155.282 1297.37 154.888C1297.11 154.494 1296.98 154.011 1296.98 153.439C1296.98 152.947 1297.08 152.542 1297.27 152.223C1297.46 151.905 1297.71 151.653 1298.03 151.468C1298.36 151.282 1298.72 151.142 1299.11 151.047C1299.51 150.953 1299.92 150.881 1300.33 150.831C1300.85 150.771 1301.28 150.722 1301.6 150.684C1301.93 150.642 1302.17 150.576 1302.31 150.485C1302.46 150.394 1302.53 150.246 1302.53 150.042V150.002C1302.53 149.506 1302.39 149.121 1302.11 148.848C1301.84 148.576 1301.42 148.439 1300.88 148.439C1300.3 148.439 1299.85 148.566 1299.52 148.82C1299.2 149.07 1298.97 149.348 1298.85 149.655L1297.25 149.292C1297.44 148.761 1297.72 148.333 1298.08 148.008C1298.45 147.678 1298.87 147.439 1299.35 147.292C1299.82 147.14 1300.33 147.064 1300.85 147.064C1301.2 147.064 1301.57 147.106 1301.96 147.189C1302.35 147.269 1302.72 147.417 1303.06 147.633C1303.41 147.848 1303.69 148.157 1303.91 148.559C1304.13 148.956 1304.24 149.473 1304.24 150.11V155.905H1302.58V154.712H1302.51C1302.4 154.932 1302.24 155.148 1302.02 155.36C1301.8 155.572 1301.52 155.748 1301.17 155.888C1300.83 156.028 1300.41 156.098 1299.93 156.098ZM1300.3 154.735C1300.77 154.735 1301.17 154.642 1301.51 154.456C1301.84 154.271 1302.1 154.028 1302.27 153.729C1302.45 153.426 1302.54 153.102 1302.54 152.758V151.633C1302.48 151.693 1302.36 151.75 1302.19 151.803C1302.02 151.852 1301.82 151.896 1301.6 151.934C1301.38 151.968 1301.17 152 1300.96 152.03C1300.75 152.057 1300.58 152.08 1300.44 152.098C1300.11 152.14 1299.81 152.21 1299.53 152.309C1299.27 152.407 1299.05 152.549 1298.89 152.735C1298.73 152.917 1298.65 153.159 1298.65 153.462C1298.65 153.883 1298.8 154.201 1299.11 154.417C1299.42 154.629 1299.82 154.735 1300.3 154.735ZM1307.29 159.178C1307.03 159.178 1306.8 159.157 1306.59 159.116C1306.39 159.078 1306.23 159.036 1306.13 158.991L1306.54 157.598C1306.85 157.682 1307.12 157.718 1307.37 157.706C1307.61 157.695 1307.82 157.604 1308.01 157.434C1308.2 157.263 1308.36 156.985 1308.51 156.598L1308.72 156.019L1305.53 147.178H1307.34L1309.55 153.951H1309.65L1311.86 147.178H1313.68L1310.08 157.07C1309.92 157.525 1309.7 157.909 1309.45 158.223C1309.19 158.542 1308.88 158.78 1308.53 158.939C1308.17 159.098 1307.76 159.178 1307.29 159.178ZM1315.3 155.905V147.178H1316.93V148.598H1317.04C1317.22 148.117 1317.52 147.742 1317.93 147.473C1318.34 147.201 1318.84 147.064 1319.41 147.064C1320 147.064 1320.49 147.201 1320.88 147.473C1321.28 147.746 1321.57 148.121 1321.76 148.598H1321.85C1322.06 148.133 1322.39 147.761 1322.85 147.485C1323.3 147.205 1323.84 147.064 1324.47 147.064C1325.26 147.064 1325.91 147.312 1326.41 147.809C1326.91 148.305 1327.16 149.053 1327.16 150.053V155.905H1325.46V150.212C1325.46 149.621 1325.3 149.193 1324.98 148.928C1324.66 148.663 1324.28 148.53 1323.83 148.53C1323.28 148.53 1322.85 148.701 1322.54 149.042C1322.23 149.379 1322.08 149.812 1322.08 150.343V155.905H1320.39V150.104C1320.39 149.631 1320.24 149.25 1319.94 148.962C1319.65 148.674 1319.26 148.53 1318.79 148.53C1318.47 148.53 1318.17 148.616 1317.9 148.786C1317.63 148.953 1317.41 149.186 1317.24 149.485C1317.08 149.784 1317 150.131 1317 150.525V155.905H1315.3ZM1333.23 156.081C1332.37 156.081 1331.63 155.898 1331 155.53C1330.39 155.159 1329.91 154.638 1329.57 153.968C1329.24 153.294 1329.07 152.504 1329.07 151.598C1329.07 150.705 1329.24 149.917 1329.57 149.235C1329.91 148.553 1330.38 148.021 1330.98 147.638C1331.59 147.256 1332.3 147.064 1333.11 147.064C1333.6 147.064 1334.08 147.146 1334.54 147.309C1335 147.472 1335.42 147.727 1335.78 148.076C1336.15 148.424 1336.44 148.877 1336.65 149.434C1336.86 149.987 1336.97 150.659 1336.97 151.451V152.053H1330.03V150.78H1335.31C1335.31 150.333 1335.21 149.937 1335.03 149.593C1334.85 149.244 1334.6 148.97 1334.27 148.769C1333.94 148.568 1333.56 148.468 1333.12 148.468C1332.64 148.468 1332.22 148.585 1331.87 148.82C1331.52 149.051 1331.24 149.354 1331.05 149.729C1330.86 150.1 1330.77 150.504 1330.77 150.939V151.934C1330.77 152.517 1330.87 153.013 1331.07 153.422C1331.28 153.831 1331.57 154.144 1331.94 154.36C1332.31 154.572 1332.75 154.678 1333.24 154.678C1333.56 154.678 1333.86 154.633 1334.12 154.542C1334.39 154.447 1334.62 154.307 1334.81 154.121C1335 153.936 1335.15 153.706 1335.25 153.434L1336.86 153.723C1336.73 154.197 1336.5 154.612 1336.17 154.968C1335.84 155.32 1335.42 155.595 1334.92 155.792C1334.43 155.985 1333.86 156.081 1333.23 156.081ZM1340.58 150.723V155.905H1338.88V147.178H1340.51V148.598H1340.62C1340.82 148.136 1341.13 147.765 1341.56 147.485C1341.99 147.205 1342.54 147.064 1343.19 147.064C1343.79 147.064 1344.31 147.189 1344.75 147.439C1345.2 147.686 1345.55 148.053 1345.79 148.542C1346.04 149.03 1346.16 149.634 1346.16 150.354V155.905H1344.46V150.559C1344.46 149.926 1344.3 149.432 1343.97 149.076C1343.64 148.716 1343.19 148.536 1342.61 148.536C1342.22 148.536 1341.87 148.621 1341.56 148.792C1341.26 148.962 1341.02 149.212 1340.84 149.542C1340.67 149.867 1340.58 150.261 1340.58 150.723ZM1352.54 147.178V148.542H1347.77V147.178H1352.54ZM1349.05 145.087H1350.75V153.343C1350.75 153.672 1350.8 153.92 1350.9 154.087C1351 154.25 1351.12 154.362 1351.28 154.422C1351.44 154.479 1351.61 154.508 1351.8 154.508C1351.93 154.508 1352.05 154.498 1352.15 154.479C1352.26 154.46 1352.34 154.445 1352.39 154.434L1352.7 155.837C1352.6 155.875 1352.46 155.913 1352.28 155.951C1352.1 155.992 1351.87 156.015 1351.6 156.019C1351.15 156.026 1350.73 155.947 1350.35 155.78C1349.96 155.614 1349.65 155.356 1349.41 155.008C1349.17 154.659 1349.05 154.222 1349.05 153.695V145.087ZM1368.95 150.087C1368.95 151.33 1368.72 152.398 1368.26 153.292C1367.81 154.182 1367.19 154.867 1366.39 155.348C1365.61 155.826 1364.71 156.064 1363.71 156.064C1362.7 156.064 1361.8 155.826 1361.01 155.348C1360.22 154.867 1359.6 154.18 1359.14 153.286C1358.69 152.392 1358.46 151.326 1358.46 150.087C1358.46 148.845 1358.69 147.778 1359.14 146.888C1359.6 145.994 1360.22 145.309 1361.01 144.831C1361.8 144.35 1362.7 144.11 1363.71 144.11C1364.71 144.11 1365.61 144.35 1366.39 144.831C1367.19 145.309 1367.81 145.994 1368.26 146.888C1368.72 147.778 1368.95 148.845 1368.95 150.087ZM1367.21 150.087C1367.21 149.14 1367.05 148.343 1366.75 147.695C1366.44 147.044 1366.03 146.551 1365.5 146.218C1364.97 145.881 1364.37 145.712 1363.71 145.712C1363.04 145.712 1362.44 145.881 1361.91 146.218C1361.38 146.551 1360.97 147.044 1360.66 147.695C1360.36 148.343 1360.21 149.14 1360.21 150.087C1360.21 151.034 1360.36 151.833 1360.66 152.485C1360.97 153.133 1361.38 153.625 1361.91 153.962C1362.44 154.295 1363.04 154.462 1363.71 154.462C1364.37 154.462 1364.97 154.295 1365.5 153.962C1366.03 153.625 1366.44 153.133 1366.75 152.485C1367.05 151.833 1367.21 151.034 1367.21 150.087ZM1371.02 159.178V147.178H1372.68V148.593H1372.82C1372.92 148.411 1373.06 148.201 1373.25 147.962C1373.43 147.723 1373.69 147.515 1374.02 147.337C1374.35 147.155 1374.79 147.064 1375.33 147.064C1376.03 147.064 1376.66 147.242 1377.22 147.598C1377.77 147.955 1378.2 148.468 1378.52 149.138C1378.83 149.809 1378.99 150.616 1378.99 151.559C1378.99 152.502 1378.84 153.311 1378.52 153.985C1378.21 154.655 1377.78 155.172 1377.23 155.536C1376.68 155.896 1376.05 156.076 1375.35 156.076C1374.82 156.076 1374.38 155.987 1374.04 155.809C1373.71 155.631 1373.45 155.422 1373.26 155.184C1373.07 154.945 1372.93 154.733 1372.82 154.547H1372.72V159.178H1371.02ZM1372.69 151.542C1372.69 152.155 1372.78 152.693 1372.95 153.155C1373.13 153.617 1373.39 153.979 1373.73 154.241C1374.06 154.498 1374.48 154.627 1374.97 154.627C1375.47 154.627 1375.9 154.492 1376.24 154.223C1376.58 153.951 1376.84 153.581 1377.01 153.116C1377.19 152.65 1377.28 152.125 1377.28 151.542C1377.28 150.966 1377.19 150.449 1377.02 149.991C1376.85 149.532 1376.59 149.17 1376.24 148.905C1375.9 148.64 1375.48 148.508 1374.97 148.508C1374.47 148.508 1374.06 148.634 1373.72 148.888C1373.38 149.142 1373.12 149.496 1372.95 149.951C1372.77 150.405 1372.69 150.936 1372.69 151.542ZM1384.99 147.178V148.542H1380.23V147.178H1384.99ZM1381.51 145.087H1383.21V153.343C1383.21 153.672 1383.25 153.92 1383.35 154.087C1383.45 154.25 1383.58 154.362 1383.73 154.422C1383.89 154.479 1384.07 154.508 1384.25 154.508C1384.39 154.508 1384.51 154.498 1384.61 154.479C1384.71 154.46 1384.79 154.445 1384.85 154.434L1385.15 155.837C1385.06 155.875 1384.92 155.913 1384.73 155.951C1384.55 155.992 1384.32 156.015 1384.05 156.019C1383.6 156.026 1383.19 155.947 1382.8 155.78C1382.42 155.614 1382.1 155.356 1381.86 155.008C1381.63 154.659 1381.51 154.222 1381.51 153.695V145.087ZM1386.9 155.905V147.178H1388.6V155.905H1386.9ZM1387.76 145.831C1387.46 145.831 1387.21 145.733 1386.99 145.536C1386.79 145.335 1386.68 145.097 1386.68 144.82C1386.68 144.54 1386.79 144.301 1386.99 144.104C1387.21 143.903 1387.46 143.803 1387.76 143.803C1388.05 143.803 1388.3 143.903 1388.51 144.104C1388.72 144.301 1388.83 144.54 1388.83 144.82C1388.83 145.097 1388.72 145.335 1388.51 145.536C1388.3 145.733 1388.05 145.831 1387.76 145.831ZM1394.58 156.081C1393.76 156.081 1393.05 155.894 1392.44 155.519C1391.83 155.144 1391.36 154.619 1391.02 153.945C1390.68 153.271 1390.51 152.483 1390.51 151.581C1390.51 150.676 1390.68 149.884 1391.02 149.206C1391.36 148.528 1391.83 148.002 1392.44 147.627C1393.05 147.252 1393.76 147.064 1394.58 147.064C1395.4 147.064 1396.11 147.252 1396.72 147.627C1397.33 148.002 1397.81 148.528 1398.15 149.206C1398.48 149.884 1398.65 150.676 1398.65 151.581C1398.65 152.483 1398.48 153.271 1398.15 153.945C1397.81 154.619 1397.33 155.144 1396.72 155.519C1396.11 155.894 1395.4 156.081 1394.58 156.081ZM1394.59 154.655C1395.12 154.655 1395.56 154.515 1395.91 154.235C1396.26 153.955 1396.51 153.581 1396.68 153.116C1396.85 152.65 1396.93 152.136 1396.93 151.576C1396.93 151.019 1396.85 150.508 1396.68 150.042C1396.51 149.572 1396.26 149.195 1395.91 148.911C1395.56 148.627 1395.12 148.485 1394.59 148.485C1394.05 148.485 1393.61 148.627 1393.26 148.911C1392.91 149.195 1392.65 149.572 1392.48 150.042C1392.31 150.508 1392.23 151.019 1392.23 151.576C1392.23 152.136 1392.31 152.65 1392.48 153.116C1392.65 153.581 1392.91 153.955 1393.26 154.235C1393.61 154.515 1394.05 154.655 1394.59 154.655ZM1402.27 150.723V155.905H1400.57V147.178H1402.2V148.598H1402.31C1402.51 148.136 1402.82 147.765 1403.25 147.485C1403.68 147.205 1404.23 147.064 1404.88 147.064C1405.48 147.064 1406 147.189 1406.45 147.439C1406.89 147.686 1407.24 148.053 1407.49 148.542C1407.73 149.03 1407.86 149.634 1407.86 150.354V155.905H1406.16V150.559C1406.16 149.926 1405.99 149.432 1405.66 149.076C1405.33 148.716 1404.88 148.536 1404.3 148.536C1403.91 148.536 1403.56 148.621 1403.25 148.792C1402.95 148.962 1402.71 149.212 1402.53 149.542C1402.36 149.867 1402.27 150.261 1402.27 150.723ZM1416.7 149.309L1415.16 149.581C1415.09 149.384 1414.99 149.197 1414.85 149.019C1414.71 148.841 1414.53 148.695 1414.29 148.581C1414.06 148.468 1413.77 148.411 1413.41 148.411C1412.93 148.411 1412.53 148.519 1412.21 148.735C1411.89 148.947 1411.73 149.222 1411.73 149.559C1411.73 149.85 1411.83 150.085 1412.05 150.263C1412.27 150.441 1412.61 150.587 1413.1 150.701L1414.48 151.019C1415.28 151.205 1415.88 151.491 1416.28 151.877C1416.67 152.263 1416.87 152.765 1416.87 153.383C1416.87 153.905 1416.72 154.371 1416.41 154.78C1416.11 155.186 1415.7 155.504 1415.16 155.735C1414.62 155.966 1414 156.081 1413.3 156.081C1412.32 156.081 1411.53 155.873 1410.91 155.456C1410.29 155.036 1409.91 154.439 1409.77 153.667L1411.41 153.417C1411.52 153.845 1411.73 154.169 1412.04 154.388C1412.36 154.604 1412.78 154.712 1413.29 154.712C1413.85 154.712 1414.29 154.597 1414.62 154.366C1414.96 154.131 1415.12 153.845 1415.12 153.508C1415.12 153.235 1415.02 153.006 1414.82 152.82C1414.62 152.634 1414.31 152.494 1413.89 152.4L1412.41 152.076C1411.6 151.89 1411 151.595 1410.61 151.189C1410.22 150.784 1410.03 150.271 1410.03 149.65C1410.03 149.134 1410.17 148.684 1410.46 148.297C1410.75 147.911 1411.14 147.61 1411.65 147.394C1412.16 147.174 1412.74 147.064 1413.4 147.064C1414.34 147.064 1415.08 147.269 1415.62 147.678C1416.17 148.083 1416.52 148.627 1416.7 149.309Z" fill="#333333"/>
</svg>
